<svg xmlns="http://www.w3.org/2000/svg" width="1280" height="640" viewBox="0 0 1280 640" role="img" aria-label="PayGate">
<defs>
  <radialGradient id="bg" cx="50%" cy="42%" r="74%"><stop stop-color="#12362f"/><stop offset="1" stop-color="#050b0f"/></radialGradient>
  <linearGradient id="pg" x1="25" y1="4" x2="54" y2="58" gradientUnits="userSpaceOnUse"><stop stop-color="#58ff72"/><stop offset=".46" stop-color="#13e99f"/><stop offset="1" stop-color="#08a9c9"/></linearGradient>
  <linearGradient id="bar" x1="15" y1="26" x2="42" y2="42" gradientUnits="userSpaceOnUse"><stop stop-color="#5cff6c"/><stop offset="1" stop-color="#04b9c2"/></linearGradient>
  <linearGradient id="word" x1="565" y1="270" x2="900" y2="385" gradientUnits="userSpaceOnUse"><stop stop-color="#58ff72"/><stop offset=".55" stop-color="#13e99f"/><stop offset="1" stop-color="#08a9c9"/></linearGradient>
</defs>
<rect width="1280" height="640" rx="40" fill="url(#bg)"/>
<g transform="translate(322 224) scale(3)">
  <path d="M31.2 4.2c-4.2 0-7.2 1.4-10.8 3.5L10.2 13.6C6.3 15.8 4 19.9 4 24.4v24.1c0 5.6 5.8 9 10.5 6.1l8.3-5.2c3.4-2.1 5.4-5.7 5.4-9.7V25.9c0-3.2 1.7-6.1 4.5-7.7l5.8-3.4c3.6-2.1 3-7.5-.8-9-2.2-.9-4.3-1.6-6.5-1.6Z" fill="#0b2029"/>
  <path d="M30.8 4.2c2.8 0 5.5.8 8 2.2l13.6 8C57.1 17.2 60 22.2 60 27.7v8.5c0 5.6-2.9 10.7-7.7 13.5l-13 7.7c-4.8 2.8-10.8-.6-10.8-6.2v-6.5c0-3.4 1.8-6.5 4.7-8.2l13.1-7.6c2.1-1.2 2.1-4.2 0-5.5l-13-7.5c-3-1.7-4.8-4.9-4.8-8.3V6.5c0-1.3.9-2.3 2.3-2.3Z" fill="url(#pg)"/>
  <circle cx="14" cy="36.2" r="3.2" fill="url(#bar)"/><rect x="18.4" y="26.2" width="18.6" height="5.2" rx="2.6" fill="url(#bar)"/><rect x="16.5" y="33.5" width="24" height="5.2" rx="2.6" fill="url(#bar)"/><rect x="18.2" y="40.8" width="18.9" height="5.2" rx="2.6" fill="url(#bar)"/>
</g>
<text x="545" y="345" fill="#dce7ec" font-family="Inter,Segoe UI,Arial,sans-serif" font-size="98" font-weight="760" letter-spacing="-5">Pay</text>
<text x="700" y="345" fill="url(#word)" font-family="Inter,Segoe UI,Arial,sans-serif" font-size="98" font-weight="780" letter-spacing="-5">Gate</text>
<text x="640" y="430" text-anchor="middle" fill="#89a09f" font-family="Inter,Segoe UI,Arial,sans-serif" font-size="26">Private payment operations, verified by evidence.</text>
</svg>